<?xml version="1.0" encoding="UTF-8" standalone="no"?>
<!-- Generator: Adobe Illustrator 19.0.0, SVG Export Plug-In . SVG Version: 6.00 Build 0)  -->

<svg
   xmlns:dc="http://purl.org/dc/elements/1.1/"
   xmlns:cc="http://creativecommons.org/ns#"
   xmlns:rdf="http://www.w3.org/1999/02/22-rdf-syntax-ns#"
   xmlns:svg="http://www.w3.org/2000/svg"
   xmlns="http://www.w3.org/2000/svg"
   xmlns:sodipodi="http://sodipodi.sourceforge.net/DTD/sodipodi-0.dtd"
   xmlns:inkscape="http://www.inkscape.org/namespaces/inkscape"
   version="1.1"
   id="Capa_1"
   x="0px"
   y="0px"
   viewBox="0 0 58.365 58.365"
   style="enable-background:new 0 0 58.365 58.365;"
   xml:space="preserve"
   sodipodi:docname="home.svg"
   inkscape:version="0.92.2 (5c3e80d, 2017-08-06)"><metadata
     id="metadata4633"><rdf:RDF><cc:Work
         rdf:about=""><dc:format>image/svg+xml</dc:format><dc:type
           rdf:resource="http://purl.org/dc/dcmitype/StillImage" /></cc:Work></rdf:RDF></metadata><defs
     id="defs4631" /><sodipodi:namedview
     pagecolor="#ffffff"
     bordercolor="#666666"
     borderopacity="1"
     objecttolerance="10"
     gridtolerance="10"
     guidetolerance="10"
     inkscape:pageopacity="0"
     inkscape:pageshadow="2"
     inkscape:window-width="640"
     inkscape:window-height="480"
     id="namedview4629"
     showgrid="false"
     inkscape:zoom="4.0435191"
     inkscape:cx="29.182501"
     inkscape:cy="29.182501"
     inkscape:window-x="0"
     inkscape:window-y="0"
     inkscape:window-maximized="0"
     inkscape:current-layer="Capa_1" /><path
     d="M57.863,26.632L29.182,0L0.502,26.632c-0.404,0.376-0.428,1.009-0.052,1.414c0.374,0.404,1.009,0.427,1.413,0.052  l3.319-3.082v33.349h16h16h16V25.015l3.319,3.082c0.192,0.179,0.437,0.267,0.681,0.267c0.269,0,0.536-0.107,0.732-0.319  C58.291,27.641,58.267,27.008,57.863,26.632z M23.182,56.365v-16c0-3.309,2.691-6,6-6s6,2.691,6,6v16H23.182z M51.182,56.365h-14  v-16c0-4.411-3.589-8-8-8s-8,3.589-8,8v16h-14V23.158l22-20.429l22,20.429V56.365z"
     id="path4596"
     style="fill:#ffffff" /><g
     id="g4598" /><g
     id="g4600" /><g
     id="g4602" /><g
     id="g4604" /><g
     id="g4606" /><g
     id="g4608" /><g
     id="g4610" /><g
     id="g4612" /><g
     id="g4614" /><g
     id="g4616" /><g
     id="g4618" /><g
     id="g4620" /><g
     id="g4622" /><g
     id="g4624" /><g
     id="g4626" /></svg>