<?xml version="1.0" encoding="UTF-8" standalone="no"?>
<!DOCTYPE svg PUBLIC "-//W3C//DTD SVG 20010904//EN"
              "http://www.w3.org/TR/2001/REC-SVG-20010904/DTD/svg10.dtd">

<svg xmlns="http://www.w3.org/2000/svg"
     width="5.67in" height="8.35in"
     viewBox="0 0 1701 2505">
  <path id="Selection"
        fill="none" stroke="#fff" stroke-width="13"
        d="M 1429.96,417.00
           C 1434.27,412.94 1434.47,408.33 1436.86,403.00
             1439.44,397.26 1444.07,390.68 1448.29,386.04
             1452.70,381.19 1461.04,375.15 1467.00,372.32
             1472.51,369.70 1475.70,369.55 1481.00,366.00
             1481.81,383.55 1494.04,417.10 1500.80,434.00
             1500.80,434.00 1547.99,545.00 1547.99,545.00
             1563.89,583.55 1579.87,631.46 1583.96,673.00
             1583.96,673.00 1583.96,681.00 1583.96,681.00
             1583.96,681.00 1585.00,691.00 1585.00,691.00
             1585.00,691.00 1585.00,695.00 1585.00,695.00
             1584.90,702.92 1583.13,719.16 1581.55,727.00
             1581.55,727.00 1578.00,744.00 1578.00,744.00
             1581.76,739.14 1583.79,731.86 1585.66,726.00
             1590.70,710.20 1593.19,687.60 1593.00,671.00
             1593.00,671.00 1592.09,661.00 1592.09,661.00
             1588.81,613.01 1575.47,568.82 1561.72,523.00
             1540.47,452.17 1515.59,372.29 1530.45,298.00
             1533.45,282.97 1538.93,264.92 1545.31,251.00
             1545.31,251.00 1561.00,220.00 1561.00,220.00
             1555.56,222.57 1553.42,225.82 1549.00,229.72
             1549.00,229.72 1523.00,253.83 1523.00,253.83
             1489.61,284.04 1447.84,327.72 1435.14,372.00
             1431.97,383.05 1430.71,390.57 1429.96,402.00
             1429.47,408.34 1428.11,410.35 1429.96,417.00 Z
           M 945.00,241.00
           C 945.00,241.00 945.00,243.00 945.00,243.00
             957.40,244.75 993.17,256.26 1006.00,260.95
             1041.29,273.85 1068.85,285.73 1102.00,303.69
             1238.38,377.62 1357.41,505.34 1388.55,661.00
             1393.10,683.72 1395.96,706.84 1396.00,730.00
             1396.00,730.00 1396.66,741.00 1396.66,741.00
             1396.66,741.00 1396.00,752.00 1396.00,752.00
             1395.95,781.88 1390.72,815.08 1383.12,844.00
             1383.12,844.00 1369.00,891.00 1369.00,891.00
             1374.49,885.50 1382.12,865.96 1385.19,858.00
             1396.15,829.62 1402.87,799.32 1405.09,769.00
             1405.09,769.00 1406.00,759.00 1406.00,759.00
             1406.00,759.00 1407.00,733.00 1407.00,733.00
             1407.00,733.00 1406.00,716.00 1406.00,716.00
             1405.96,687.68 1398.79,648.68 1391.87,621.00
             1374.07,549.80 1342.06,482.64 1299.42,423.00
             1281.50,397.94 1257.04,368.99 1234.00,348.72
             1226.50,342.12 1215.63,331.55 1207.00,327.00
             1214.78,326.35 1230.24,331.74 1238.00,334.33
             1264.67,343.25 1291.92,358.30 1315.00,374.28
             1380.13,419.40 1438.02,483.99 1480.05,551.00
             1492.12,570.24 1504.75,593.94 1513.20,615.00
             1517.02,624.53 1522.60,640.03 1524.00,650.00
             1527.46,645.30 1525.28,641.41 1525.04,636.00
             1524.47,623.41 1522.17,612.13 1518.85,600.00
             1506.10,553.43 1471.27,499.88 1440.59,463.00
             1366.17,373.58 1263.15,295.72 1152.00,258.67
             1116.82,246.94 1081.06,238.50 1044.00,235.91
             1044.00,235.91 1032.00,235.00 1032.00,235.00
             1032.00,235.00 997.00,235.00 997.00,235.00
             997.00,235.00 962.00,238.42 962.00,238.42
             962.00,238.42 945.00,241.00 945.00,241.00 Z
           M 424.00,911.00
           C 421.25,904.55 404.65,883.31 399.43,876.00
             384.15,854.63 369.52,832.53 356.00,810.00
             326.94,761.57 304.58,717.33 288.28,663.00
             281.45,640.23 276.64,616.71 274.91,593.00
             274.91,593.00 274.00,583.00 274.00,583.00
             273.73,559.64 274.90,539.78 280.88,517.00
             280.88,517.00 286.42,499.00 286.42,499.00
             286.42,499.00 293.00,482.00 293.00,482.00
             294.70,487.99 293.99,496.60 294.00,503.00
             294.00,503.00 294.91,515.00 294.91,515.00
             296.39,536.48 298.77,557.91 303.42,579.00
             311.06,613.56 320.38,628.00 337.58,658.00
             355.37,689.03 375.51,718.86 398.87,746.00
             398.87,746.00 428.00,777.00 428.00,777.00
             433.62,782.62 439.74,789.63 447.00,793.00
             444.47,787.07 438.59,780.33 434.63,775.00
             434.63,775.00 414.02,746.00 414.02,746.00
             394.80,718.10 371.39,679.68 357.31,649.00
             351.24,635.78 345.00,620.10 341.47,606.00
             341.47,606.00 338.10,590.00 338.10,590.00
             338.10,590.00 334.37,577.00 334.37,577.00
             334.37,577.00 327.28,540.00 327.28,540.00
             322.42,499.95 326.59,459.19 335.88,420.00
             339.26,405.78 345.90,383.50 351.20,370.00
             351.20,370.00 364.00,338.00 364.00,338.00
             357.02,340.98 347.97,349.61 342.00,354.73
             324.06,370.11 305.34,390.75 291.58,410.00
             278.51,428.29 265.37,451.95 257.42,473.00
             250.95,490.14 246.12,507.94 243.08,526.00
             224.73,634.96 271.40,741.25 338.40,825.00
             338.40,825.00 373.96,865.00 373.96,865.00
             373.96,865.00 383.01,874.99 383.01,874.99
             383.01,874.99 394.00,885.01 394.00,885.01
             400.39,891.25 416.78,907.61 424.00,911.00 Z
           M 180.00,430.00
           C 168.05,444.13 159.64,465.27 154.58,483.00
             148.42,504.60 145.29,526.70 143.04,549.00
             143.04,549.00 143.04,559.00 143.04,559.00
             143.04,559.00 142.00,571.00 142.00,571.00
             142.00,571.00 142.00,592.00 142.00,592.00
             142.00,592.00 143.00,605.00 143.00,605.00
             143.29,630.36 148.72,663.12 154.35,688.00
             171.13,762.15 205.21,832.54 253.92,891.00
             273.50,914.50 294.52,935.62 318.00,955.25
             325.11,961.19 341.07,974.92 349.00,978.00
             349.00,978.00 328.00,958.96 328.00,958.96
             316.46,947.92 303.62,932.76 293.88,920.00
             253.66,867.25 222.32,798.45 203.28,735.00
             196.37,711.95 186.52,672.59 186.00,649.00
             186.00,649.00 198.31,677.00 198.31,677.00
             198.31,677.00 219.51,718.00 219.51,718.00
             219.51,718.00 228.92,735.98 228.92,735.98
             228.92,735.98 237.58,746.02 237.58,746.02
             250.24,762.90 256.75,771.75 272.00,787.00
             282.01,797.01 293.89,807.40 306.00,814.80
             311.07,817.89 315.08,820.87 321.00,822.00
             318.08,815.79 305.22,802.15 300.08,796.00
             300.08,796.00 256.91,742.00 256.91,742.00
             256.91,742.00 244.58,722.00 244.58,722.00
             225.02,688.30 211.19,654.05 199.34,617.00
             188.46,582.95 182.55,547.49 179.04,512.00
             179.04,512.00 179.04,503.00 179.04,503.00
             179.04,503.00 178.00,491.00 178.00,491.00
             178.00,491.00 179.09,450.00 179.09,450.00
             179.47,444.46 181.91,434.87 180.00,430.00 Z
           M 1317.00,597.00
           C 1317.00,597.00 1322.57,625.00 1322.57,625.00
             1324.34,636.90 1324.02,644.21 1324.00,656.00
             1323.95,690.70 1303.66,726.32 1283.12,753.00
             1273.12,765.99 1261.80,777.70 1250.00,789.04
             1250.00,789.04 1238.00,800.83 1238.00,800.83
             1206.02,829.77 1170.78,855.33 1135.00,879.33
             1135.00,879.33 1103.00,900.00 1103.00,900.00
             1107.66,900.63 1118.38,894.06 1123.00,891.75
             1123.00,891.75 1172.00,866.86 1172.00,866.86
             1172.00,866.86 1199.00,852.69 1199.00,852.69
             1199.00,852.69 1261.00,816.69 1261.00,816.69
             1290.95,797.44 1313.12,780.80 1330.86,749.00
             1335.12,741.37 1343.10,727.09 1345.00,719.00
             1348.35,725.89 1350.87,739.13 1352.65,747.00
             1361.95,788.11 1358.38,821.51 1343.95,861.00
             1343.95,861.00 1329.69,896.00 1329.69,896.00
             1329.69,896.00 1319.00,920.00 1319.00,920.00
             1323.83,915.49 1328.06,906.91 1331.30,901.00
             1331.30,901.00 1348.30,867.00 1348.30,867.00
             1362.01,836.62 1371.20,804.09 1375.15,771.00
             1375.15,771.00 1377.00,752.00 1377.00,752.00
             1377.33,723.65 1377.44,701.88 1370.12,674.00
             1364.53,652.71 1354.52,627.90 1338.99,612.00
             1332.89,605.76 1325.84,598.79 1317.00,597.00 Z
           M 1609.00,679.00
           C 1614.33,679.97 1628.66,682.75 1629.86,689.27
             1630.27,691.45 1625.96,696.22 1624.63,698.00
             1619.93,704.32 1614.80,712.95 1611.25,720.00
             1598.15,746.02 1590.34,774.62 1584.21,803.00
             1573.30,853.52 1562.41,904.16 1539.74,951.00
             1501.21,1030.61 1435.54,1086.27 1361.00,1131.00
             1365.07,1132.01 1368.38,1129.56 1372.00,1127.75
             1372.00,1127.75 1395.00,1116.25 1395.00,1116.25
             1424.80,1101.31 1465.52,1073.37 1489.00,1050.00
             1524.00,1015.16 1545.13,984.78 1565.69,940.00
             1594.46,877.33 1607.35,808.47 1634.43,745.00
             1645.29,719.54 1658.82,694.66 1674.72,672.00
             1674.72,672.00 1690.13,652.00 1690.13,652.00
             1694.05,647.42 1699.28,642.85 1701.00,637.00
             1675.28,637.00 1651.78,644.86 1630.00,658.42
             1622.18,663.29 1611.34,669.56 1609.00,679.00 Z
           M 549.00,949.00
           C 549.00,949.00 541.67,938.00 541.67,938.00
             541.67,938.00 530.43,920.00 530.43,920.00
             516.56,895.82 503.69,868.13 493.95,842.00
             489.70,830.61 481.80,806.77 482.26,795.00
             482.26,795.00 484.00,786.00 484.00,786.00
             484.00,786.00 503.00,804.20 503.00,804.20
             511.35,810.95 520.49,816.69 530.00,821.68
             530.00,821.68 541.99,827.35 541.99,827.35
             541.99,827.35 550.09,833.72 550.09,833.72
             553.80,836.13 573.61,845.43 578.00,846.58
             583.33,847.97 585.55,846.79 588.58,847.13
             588.58,847.13 619.00,855.25 619.00,855.25
             619.00,855.25 629.00,856.76 629.00,856.76
             629.00,856.76 641.00,861.87 641.00,861.87
             641.00,861.87 653.59,864.93 653.59,864.93
             653.59,864.93 663.00,868.16 663.00,868.16
             666.47,868.96 671.05,868.87 673.96,870.31
             676.35,871.49 678.04,873.53 680.17,875.09
             680.17,875.09 696.00,884.78 696.00,884.78
             703.01,887.86 708.22,883.59 714.09,886.28
             789.02,920.57 841.49,982.15 875.31,1056.00
             884.16,1075.34 898.38,1110.73 903.00,1131.00
             905.08,1125.71 901.78,1112.90 900.60,1107.00
             896.70,1087.48 891.95,1067.91 885.67,1049.00
             871.96,1007.72 855.92,971.32 831.67,935.00
             818.31,914.99 801.09,893.99 781.00,880.52
             766.19,870.59 762.50,872.12 749.00,866.42
             749.00,866.42 731.17,858.93 731.17,858.93
             731.17,858.93 725.25,853.79 725.25,853.79
             721.14,850.43 713.28,846.71 708.00,847.00
             705.79,843.93 702.61,843.84 699.01,842.63
             686.15,838.29 683.18,840.01 672.00,837.87
             668.59,837.22 666.98,835.99 664.00,835.04
             664.00,835.04 655.00,833.29 655.00,833.29
             655.00,833.29 648.00,829.52 648.00,829.52
             648.00,829.52 628.00,821.29 628.00,821.29
             618.48,818.25 617.85,822.57 605.00,816.69
             605.00,816.69 592.37,810.30 592.37,810.30
             589.91,808.26 589.18,805.77 584.98,802.63
             584.98,802.63 578.00,798.09 578.00,798.09
             578.00,798.09 563.00,786.92 563.00,786.92
             552.48,779.68 548.82,783.71 541.00,777.53
             500.67,745.66 472.07,694.20 456.00,646.00
             449.50,649.08 447.05,653.69 444.18,660.00
             439.36,670.58 436.75,688.38 437.01,700.00
             437.01,700.00 438.04,709.00 438.04,709.00
             438.04,709.00 438.04,717.00 438.04,717.00
             440.57,742.15 447.03,767.09 455.00,791.00
             466.70,826.11 481.78,860.23 500.80,892.00
             509.33,906.24 521.43,924.29 533.00,936.00
             537.92,940.98 542.47,946.21 549.00,949.00 Z
           M 1144.00,690.00
           C 1141.95,683.83 1137.63,679.46 1133.00,675.04
             1116.05,658.83 1091.59,656.16 1070.00,663.69
             1063.64,665.91 1058.67,668.19 1053.00,671.86
             1050.79,673.30 1046.39,676.99 1044.00,677.18
             1041.39,677.37 1034.84,672.69 1032.00,671.27
             1025.32,667.93 1017.43,665.89 1010.00,665.17
             1005.55,664.74 998.42,664.21 997.41,670.02
             996.44,675.56 1001.45,680.45 1006.00,682.59
             1010.72,684.82 1011.09,682.31 1018.00,684.35
             1018.00,684.35 1047.00,694.23 1047.00,694.23
             1053.88,695.75 1057.95,689.88 1063.00,686.16
             1070.52,680.61 1080.81,674.67 1090.00,672.67
             1102.01,670.05 1114.28,673.24 1125.00,678.89
             1125.00,678.89 1144.00,690.00 1144.00,690.00 Z
           M 796.00,817.00
           C 799.31,823.37 813.44,830.55 820.00,834.28
             829.04,839.42 838.34,844.65 848.00,848.55
             856.51,851.98 889.95,860.26 899.00,861.00
             895.26,865.07 891.57,868.61 890.00,874.00
             890.00,874.00 903.00,876.00 903.00,876.00
             899.02,880.17 894.64,884.37 893.00,890.00
             893.00,890.00 912.00,890.00 912.00,890.00
             912.00,890.00 905.00,903.00 905.00,903.00
             905.00,903.00 926.00,907.00 926.00,907.00
             926.00,907.00 916.00,914.00 916.00,914.00
             916.00,914.00 941.00,922.00 941.00,922.00
             943.48,922.83 948.57,924.10 949.89,926.42
             951.12,928.58 949.68,933.58 949.20,936.00
             949.20,936.00 943.63,960.00 943.63,960.00
             938.24,981.29 930.45,1002.36 920.63,1022.00
             920.63,1022.00 907.58,1046.00 907.58,1046.00
             904.89,1050.62 901.63,1054.88 900.00,1060.00
             914.02,1059.00 928.29,1036.24 935.19,1025.00
             957.31,988.96 979.00,940.90 979.00,898.00
             979.00,898.00 951.00,893.00 951.00,893.00
             951.00,893.00 957.00,885.00 957.00,885.00
             957.00,885.00 946.00,883.00 946.00,883.00
             946.00,883.00 951.00,878.00 951.00,878.00
             951.00,878.00 936.00,877.00 936.00,877.00
             939.74,872.93 943.43,869.39 945.00,864.00
             945.00,864.00 933.00,862.00 933.00,862.00
             936.06,854.89 943.27,841.92 944.00,835.00
             944.00,835.00 905.00,828.42 905.00,828.42
             905.00,828.42 864.00,821.00 864.00,821.00
             880.49,811.07 894.45,797.55 908.00,784.00
             929.46,762.54 949.54,739.21 967.87,715.00
             967.87,715.00 983.98,693.00 983.98,693.00
             985.45,690.86 988.61,686.76 988.13,684.09
             987.58,681.10 981.47,677.62 979.00,675.86
             976.68,674.20 972.03,670.34 969.09,670.87
             965.87,671.45 957.28,683.88 954.88,687.00
             954.88,687.00 917.72,731.00 917.72,731.00
             901.39,749.52 888.43,759.33 869.00,773.87
             848.12,789.51 820.19,807.32 796.00,817.00 Z
           M 1023.00,788.00
           C 1026.50,789.99 1035.12,795.35 1039.00,794.30
             1042.46,793.36 1051.10,783.96 1053.99,781.00
             1065.00,769.71 1082.39,749.53 1090.13,736.00
             1092.87,731.20 1097.50,718.82 1100.14,716.21
             1105.19,711.22 1115.10,708.52 1122.00,707.44
             1127.01,706.65 1129.58,707.86 1134.00,705.00
             1124.44,700.13 1112.40,700.17 1102.00,701.92
             1097.82,702.62 1092.46,703.53 1089.21,706.42
             1086.55,708.78 1081.02,720.87 1078.77,725.00
             1074.44,732.95 1064.92,746.37 1058.90,753.00
             1052.09,760.50 1043.66,767.61 1036.00,774.28
             1031.26,778.40 1025.73,782.24 1023.00,788.00 Z
           M 941.00,773.00
           C 941.00,773.00 959.00,761.00 959.00,761.00
             970.14,753.66 999.02,736.39 1011.00,733.00
             1011.00,733.00 1006.00,713.00 1006.00,713.00
             998.06,713.84 991.20,718.92 985.00,723.65
             973.46,732.46 962.22,742.86 952.92,754.00
             948.13,759.74 942.77,765.57 941.00,773.00 Z
           M 93.00,795.00
           C 91.49,804.59 94.06,827.86 95.75,838.00
             102.45,878.09 120.01,917.02 143.58,950.00
             193.57,1019.94 267.83,1072.17 348.00,1102.05
             371.68,1110.88 411.96,1121.87 437.00,1122.00
             437.00,1122.00 453.00,1122.91 453.00,1122.91
             453.00,1122.91 479.00,1121.00 479.00,1121.00
             479.00,1121.00 455.00,1118.72 455.00,1118.72
             440.42,1116.75 425.98,1112.78 412.00,1108.26
             352.92,1089.13 281.37,1047.31 233.00,1008.60
             208.27,988.81 181.99,964.97 170.00,935.00
             185.07,944.04 213.28,956.67 230.00,963.85
             264.74,978.76 307.94,994.56 346.00,995.00
             346.00,995.00 355.00,995.66 355.00,995.66
             355.00,995.66 380.00,994.00 380.00,994.00
             377.35,992.95 366.60,992.26 363.00,991.93
             357.17,991.38 348.76,989.55 343.00,988.11
             321.86,982.82 296.32,971.41 277.00,961.22
             244.16,943.90 209.18,919.39 181.00,895.27
             168.67,884.72 152.93,870.90 142.17,859.00
             131.09,846.75 120.05,834.46 110.43,821.00
             110.43,821.00 93.00,795.00 93.00,795.00 Z
           M 1002.00,822.00
           C 1003.43,829.62 1013.38,846.88 1017.22,855.00
             1026.09,873.78 1034.34,893.43 1041.31,913.00
             1058.42,961.09 1070.81,1012.91 1073.04,1064.00
             1073.04,1064.00 1074.00,1077.00 1074.00,1077.00
             1074.00,1077.00 1074.00,1109.00 1074.00,1109.00
             1074.00,1109.00 1073.04,1120.00 1073.04,1120.00
             1072.00,1143.86 1068.58,1167.66 1063.42,1191.00
             1028.16,1350.67 915.45,1474.33 778.00,1556.80
             750.92,1573.04 718.95,1590.53 690.00,1603.00
             694.29,1604.16 698.99,1601.71 703.00,1600.19
             703.00,1600.19 729.00,1590.20 729.00,1590.20
             765.27,1575.69 800.48,1558.27 834.00,1538.20
             961.38,1461.92 1058.02,1347.74 1090.42,1201.00
             1095.55,1177.78 1098.47,1154.67 1100.09,1131.00
             1100.09,1131.00 1101.00,1121.00 1101.00,1121.00
             1101.00,1121.00 1101.00,1072.00 1101.00,1072.00
             1101.00,1072.00 1100.09,1060.00 1100.09,1060.00
             1100.09,1060.00 1094.42,1008.00 1094.42,1008.00
             1088.20,967.91 1078.26,930.41 1065.33,892.00
             1065.33,892.00 1042.85,834.00 1042.85,834.00
             1041.25,830.28 1035.82,815.91 1032.61,814.61
             1030.31,813.68 1025.40,815.46 1023.00,816.14
             1023.00,816.14 1002.00,822.00 1002.00,822.00 Z
           M 1109.00,937.00
           C 1109.00,937.00 1111.83,975.00 1111.83,975.00
             1111.83,975.00 1114.09,1012.00 1114.09,1012.00
             1114.09,1012.00 1115.04,1022.00 1115.04,1022.00
             1115.04,1022.00 1115.04,1034.00 1115.04,1034.00
             1115.04,1034.00 1116.00,1046.00 1116.00,1046.00
             1116.00,1046.00 1116.00,1114.00 1116.00,1114.00
             1116.00,1114.00 1115.00,1134.00 1115.00,1134.00
             1115.00,1134.00 1114.09,1144.00 1114.09,1144.00
             1112.50,1167.16 1109.70,1190.11 1105.58,1213.00
             1098.59,1251.73 1085.90,1291.58 1068.74,1327.00
             1012.65,1442.81 898.16,1520.80 790.00,1583.58
             790.00,1583.58 724.00,1620.00 724.00,1620.00
             728.16,1621.13 734.92,1618.42 739.00,1616.95
             739.00,1616.95 770.00,1605.95 770.00,1605.95
             813.84,1589.91 856.43,1570.35 897.00,1547.28
             936.52,1524.81 972.77,1498.05 1006.00,1467.09
             1006.00,1467.09 1016.96,1457.00 1016.96,1457.00
             1088.55,1382.50 1129.54,1299.16 1144.27,1197.00
             1144.27,1197.00 1149.09,1151.00 1149.09,1151.00
             1149.09,1151.00 1150.04,1141.00 1150.04,1141.00
             1150.04,1141.00 1150.04,1130.00 1150.04,1130.00
             1150.04,1130.00 1151.00,1118.00 1151.00,1118.00
             1151.00,1118.00 1151.00,1089.00 1151.00,1089.00
             1151.00,1089.00 1150.00,1072.00 1150.00,1072.00
             1150.00,1072.00 1146.83,1023.00 1146.83,1023.00
             1146.83,1023.00 1139.75,969.00 1139.75,969.00
             1139.75,969.00 1134.00,934.00 1134.00,934.00
             1134.00,934.00 1109.00,937.00 1109.00,937.00 Z
           M 1559.00,986.00
           C 1564.81,987.17 1570.03,988.72 1574.99,992.10
             1576.72,993.28 1579.75,995.40 1579.38,997.83
             1579.14,999.40 1568.86,1008.14 1567.00,1010.00
             1557.00,1020.00 1552.34,1027.03 1545.20,1039.00
             1545.20,1039.00 1520.69,1088.00 1520.69,1088.00
             1520.69,1088.00 1485.69,1160.00 1485.69,1160.00
             1463.27,1201.46 1434.54,1240.73 1400.00,1272.91
             1351.45,1318.14 1293.04,1350.36 1231.00,1373.05
             1231.00,1373.05 1173.00,1391.42 1173.00,1391.42
             1173.00,1391.42 1142.00,1398.88 1142.00,1398.88
             1146.20,1400.65 1149.66,1399.46 1154.00,1398.88
             1154.00,1398.88 1174.00,1395.42 1174.00,1395.42
             1200.70,1390.61 1226.77,1384.81 1253.00,1377.88
             1322.72,1359.48 1390.59,1327.41 1442.00,1276.00
             1442.00,1276.00 1455.72,1262.00 1455.72,1262.00
             1507.10,1203.62 1530.65,1143.45 1573.42,1083.00
             1593.25,1054.98 1612.79,1031.57 1638.00,1008.09
             1638.00,1008.09 1663.00,987.21 1663.00,987.21
             1665.34,985.37 1672.92,980.18 1673.83,977.83
             1675.21,974.27 1670.44,970.42 1668.00,968.53
             1660.80,962.95 1650.88,959.93 1642.00,958.43
             1621.20,954.94 1596.56,957.28 1578.00,967.87
             1570.38,972.22 1562.53,977.73 1559.00,986.00 Z
           M 124.00,1043.00
           C 125.99,1049.97 131.83,1058.54 135.58,1065.00
             135.58,1065.00 162.67,1108.00 162.67,1108.00
             200.81,1165.20 248.53,1213.03 310.00,1244.74
             369.60,1275.49 430.86,1287.27 492.00,1324.20
             558.89,1364.61 609.70,1426.37 650.58,1492.00
             650.58,1492.00 678.69,1540.00 678.69,1540.00
             678.69,1540.00 691.00,1563.00 691.00,1563.00
             692.08,1558.99 690.08,1555.79 688.68,1552.00
             688.68,1552.00 680.40,1531.00 680.40,1531.00
             668.74,1501.84 655.50,1473.72 640.78,1446.00
             614.43,1396.39 579.15,1350.33 534.00,1316.47
             492.92,1285.66 445.93,1264.99 401.00,1240.69
             355.64,1216.16 305.94,1183.87 268.00,1149.00
             289.92,1156.31 311.37,1163.58 334.00,1168.58
             384.23,1179.67 440.64,1181.70 491.00,1170.58
             504.39,1167.62 519.35,1163.24 532.00,1157.99
             532.00,1157.99 545.00,1152.00 545.00,1152.00
             540.13,1150.22 524.20,1154.17 518.00,1154.84
             518.00,1154.84 491.00,1157.00 491.00,1157.00
             491.00,1157.00 461.00,1157.00 461.00,1157.00
             461.00,1157.00 449.00,1156.09 449.00,1156.09
             417.47,1153.93 386.90,1149.25 356.00,1142.42
             292.16,1128.32 214.24,1100.10 158.00,1066.99
             158.00,1066.99 137.00,1053.10 137.00,1053.10
             137.00,1053.10 124.00,1043.00 124.00,1043.00 Z
           M 268.00,1148.00
           C 268.00,1148.00 268.00,1149.00 268.00,1149.00
             268.00,1149.00 267.00,1148.00 267.00,1148.00
             267.00,1148.00 268.00,1148.00 268.00,1148.00 Z
           M 957.00,1710.00
           C 937.81,1703.29 914.60,1676.77 900.00,1662.00
             894.14,1656.07 890.49,1650.02 883.00,1646.00
             883.60,1658.95 891.91,1680.28 897.75,1692.00
             913.23,1723.04 923.78,1738.70 946.58,1765.00
             954.71,1774.38 972.83,1790.27 985.00,1793.39
             987.76,1794.10 990.19,1793.99 993.00,1794.00
             993.00,1794.00 990.28,1779.00 990.28,1779.00
             988.54,1766.09 987.85,1753.03 988.00,1740.00
             988.00,1740.00 988.91,1730.00 988.91,1730.00
             988.91,1730.00 989.83,1715.00 989.83,1715.00
             997.21,1638.76 1017.13,1574.09 1052.26,1506.00
             1061.74,1487.62 1073.71,1468.11 1085.34,1451.00
             1085.34,1451.00 1104.00,1424.00 1104.00,1424.00
             1097.02,1427.24 1091.38,1433.61 1086.00,1439.00
             1072.64,1452.38 1061.79,1467.66 1050.86,1483.00
             1021.72,1523.91 989.98,1591.05 974.00,1639.00
             968.03,1656.92 957.16,1691.81 957.00,1710.00 Z
           M 702.00,1631.00
           C 702.17,1650.11 714.15,1681.79 722.75,1699.00
             750.08,1753.66 797.53,1798.27 819.19,1854.00
             837.92,1902.20 837.95,1951.09 826.12,2001.00
             826.12,2001.00 814.67,2042.00 814.67,2042.00
             814.67,2042.00 806.00,2069.00 806.00,2069.00
             812.30,2066.16 818.75,2059.77 824.00,2055.15
             833.96,2046.38 849.73,2030.97 858.27,2021.00
             875.83,2000.52 888.30,1981.71 899.14,1957.00
             927.52,1892.29 912.21,1827.04 895.12,1762.00
             895.12,1762.00 880.25,1698.00 880.25,1698.00
             880.25,1698.00 877.09,1665.00 877.09,1665.00
             877.09,1665.00 878.00,1648.00 878.00,1648.00
             874.35,1656.54 874.55,1671.61 873.91,1681.00
             873.91,1681.00 873.01,1690.00 873.01,1690.00
             873.01,1690.00 874.00,1702.00 874.00,1702.00
             874.00,1702.00 874.00,1711.00 874.00,1711.00
             874.77,1720.92 876.50,1731.25 878.45,1741.00
             878.45,1741.00 893.57,1807.00 893.57,1807.00
             893.57,1807.00 896.24,1838.00 896.24,1838.00
             896.24,1838.00 896.24,1852.00 896.24,1852.00
             895.77,1871.07 886.50,1902.10 879.40,1920.00
             879.40,1920.00 867.00,1950.00 867.00,1950.00
             866.15,1945.83 867.02,1940.57 867.00,1936.00
             866.93,1920.39 862.54,1900.71 857.31,1886.00
             836.33,1827.05 782.26,1760.81 746.67,1708.00
             746.67,1708.00 715.31,1657.00 715.31,1657.00
             715.31,1657.00 702.00,1631.00 702.00,1631.00 Z
           M 945.00,1834.00
           C 945.00,1834.00 950.00,1878.00 950.00,1878.00
             950.04,1904.26 949.95,1921.13 942.57,1947.00
             928.91,1994.95 900.15,2036.37 883.05,2083.00
             875.35,2104.01 868.03,2136.68 868.00,2159.00
             868.00,2159.00 868.00,2189.00 868.00,2189.00
             868.23,2208.46 874.33,2240.80 879.13,2260.00
             891.48,2309.42 905.34,2342.63 925.00,2389.00
             926.43,2384.69 924.22,2379.41 923.42,2375.00
             922.22,2368.35 921.01,2357.69 921.00,2351.00
             921.00,2351.00 921.00,2333.00 921.00,2333.00
             921.00,2333.00 921.91,2321.00 921.91,2321.00
             923.75,2294.65 928.49,2268.63 934.89,2243.00
             947.11,2194.13 965.40,2146.95 985.86,2101.00
             985.86,2101.00 1013.68,2039.00 1013.68,2039.00
             1017.99,2027.33 1021.98,2014.54 1022.00,2002.00
             1022.00,2002.00 1022.00,1984.00 1022.00,1984.00
             1021.78,1965.11 1015.62,1944.55 1013.00,1926.00
             1013.00,1926.00 1014.00,1928.00 1014.00,1928.00
             1014.93,1922.76 1006.90,1906.31 1004.25,1901.00
             994.35,1881.16 981.72,1862.57 965.00,1847.85
             959.32,1842.84 952.26,1836.32 945.00,1834.00 Z
           M 977.00,1970.00
           C 979.21,1978.75 981.10,1996.94 981.00,2006.00
             981.00,2006.00 980.09,2016.00 980.09,2016.00
             977.41,2052.60 961.66,2086.35 948.20,2120.00
             932.04,2160.41 919.88,2198.71 913.87,2242.00
             913.87,2242.00 910.00,2281.00 910.00,2281.00
             906.27,2276.18 904.58,2269.73 902.67,2264.00
             898.52,2251.56 895.87,2240.94 893.75,2228.00
             888.35,2195.02 890.17,2157.84 900.75,2126.00
             900.75,2126.00 916.75,2093.00 916.75,2093.00
             916.75,2093.00 944.75,2036.00 944.75,2036.00
             944.75,2036.00 966.74,1990.00 966.74,1990.00
             969.85,1983.58 972.58,1975.56 977.00,1970.00 Z" />
</svg>
