<?xml version="1.0" encoding="UTF-8" standalone="no"?>
<!-- Generator: Adobe Illustrator 19.0.0, SVG Export Plug-In . SVG Version: 6.00 Build 0)  -->

<svg
   xmlns:dc="http://purl.org/dc/elements/1.1/"
   xmlns:cc="http://creativecommons.org/ns#"
   xmlns:rdf="http://www.w3.org/1999/02/22-rdf-syntax-ns#"
   xmlns:svg="http://www.w3.org/2000/svg"
   xmlns="http://www.w3.org/2000/svg"
   xmlns:sodipodi="http://sodipodi.sourceforge.net/DTD/sodipodi-0.dtd"
   xmlns:inkscape="http://www.inkscape.org/namespaces/inkscape"
   version="1.1"
   id="Capa_1"
   x="0px"
   y="0px"
   viewBox="0 0 480 480"
   style="enable-background:new 0 0 480 480;"
   xml:space="preserve"
   sodipodi:docname="tickets.svg"
   inkscape:version="0.92.2 (5c3e80d, 2017-08-06)"><metadata
     id="metadata246"><rdf:RDF><cc:Work
         rdf:about=""><dc:format>image/svg+xml</dc:format><dc:type
           rdf:resource="http://purl.org/dc/dcmitype/StillImage" /></cc:Work></rdf:RDF></metadata><defs
     id="defs244" /><sodipodi:namedview
     pagecolor="#ffffff"
     bordercolor="#666666"
     borderopacity="1"
     objecttolerance="10"
     gridtolerance="10"
     guidetolerance="10"
     inkscape:pageopacity="0"
     inkscape:pageshadow="2"
     inkscape:window-width="640"
     inkscape:window-height="480"
     id="namedview242"
     showgrid="false"
     inkscape:zoom="0.49166667"
     inkscape:cx="240"
     inkscape:cy="240"
     inkscape:window-x="0"
     inkscape:window-y="0"
     inkscape:window-maximized="0"
     inkscape:current-layer="Capa_1" /><g
     id="g167"><g
       id="g165"><path
         d="M472,307.999c4.418,0,8-3.582,8-8v-64c0-4.418-3.582-8-8-8H371.312l50.344-50.344c3.123-3.124,3.123-8.188,0-11.312    l-43.712-43.712c-3.124-3.123-8.188-3.123-11.312,0c-12.499,12.499-32.765,12.499-45.264,0c-12.499-12.499-12.499-32.765,0-45.264    c3.123-3.124,3.123-8.188,0-11.312l-35.712-35.712c-3.124-3.123-8.188-3.123-11.312,0L76.688,227.999H8c-4.418,0-8,3.582-8,8v64    c0,4.418,3.582,8,8,8c17.673,0,32,14.327,32,32c0,17.673-14.327,32-32,32c-4.418,0-8,3.582-8,8v64c0,4.418,3.582,8,8,8h464    c4.418,0,8-3.582,8-8v-64c0-4.418-3.582-8-8-8c-17.673,0-32-14.327-32-32C440,322.326,454.327,307.999,472,307.999z M280,47.311    l24.864,24.864c-15.411,21.57-10.418,51.549,11.152,66.96c16.691,11.926,39.117,11.926,55.808,0l32.864,32.864l-56,56h-25.376    l18.344-18.344c3.123-3.124,3.123-8.188,0-11.312l-88-88c-3.124-3.123-8.188-3.123-11.312,0L124.688,227.999H99.312L280,47.311z     M300.688,227.999H147.312L248,127.311l76.688,76.688L300.688,227.999z M424.62,347.955c3.392,20.178,19.202,35.988,39.38,39.38    v48.664h-64v-32h-16v32H96v-8H80v8H16v-48.664c26.143-4.394,43.774-29.149,39.38-55.292c-3.392-20.178-19.201-35.988-39.38-39.38    v-48.664h64v24h16v-24h368v48.664C437.857,297.057,420.226,321.813,424.62,347.955z"
         id="path163"
         style="fill:#ffffff" /></g></g><g
     id="g173"><g
       id="g171"><rect
         x="384"
         y="259.999"
         width="16"
         height="32"
         id="rect169"
         style="fill:#ffffff" /></g></g><g
     id="g179"><g
       id="g177"><rect
         x="384"
         y="307.999"
         width="16"
         height="32"
         id="rect175"
         style="fill:#ffffff" /></g></g><g
     id="g185"><g
       id="g183"><rect
         x="384"
         y="355.999"
         width="16"
         height="32"
         id="rect181"
         style="fill:#ffffff" /></g></g><g
     id="g191"><g
       id="g189"><rect
         x="80"
         y="283.999"
         width="16"
         height="32"
         id="rect187"
         style="fill:#ffffff" /></g></g><g
     id="g197"><g
       id="g195"><rect
         x="80"
         y="331.999"
         width="16"
         height="32"
         id="rect193"
         style="fill:#ffffff" /></g></g><g
     id="g203"><g
       id="g201"><rect
         x="80"
         y="379.999"
         width="16"
         height="32"
         id="rect199"
         style="fill:#ffffff" /></g></g><g
     id="g209"><g
       id="g207"><path
         d="M352,283.999c-8.837,0-16-7.163-16-16c0-4.418-3.582-8-8-8H152c-4.418,0-8,3.582-8,8c0,8.837-7.163,16-16,16    c-4.418,0-8,3.582-8,8v96c0,4.418,3.582,8,8,8c8.837,0,16,7.163,16,16c0,4.418,3.582,8,8,8h176c4.418,0,8-3.582,8-8    c0-8.837,7.163-16,16-16c4.418,0,8-3.582,8-8v-96C360,287.581,356.418,283.999,352,283.999z M344,381.007    c-11.263,2.934-20.058,11.729-22.992,22.992H158.992c-2.934-11.263-11.729-20.058-22.992-22.992v-82.016    c11.263-2.934,20.058-11.729,22.992-22.992h162.016c2.934,11.263,11.729,20.058,22.992,22.992V381.007z"
         id="path205"
         style="fill:#ffffff" /></g></g><g
     id="g211" /><g
     id="g213" /><g
     id="g215" /><g
     id="g217" /><g
     id="g219" /><g
     id="g221" /><g
     id="g223" /><g
     id="g225" /><g
     id="g227" /><g
     id="g229" /><g
     id="g231" /><g
     id="g233" /><g
     id="g235" /><g
     id="g237" /><g
     id="g239" /></svg>